<svg id="Layer_1" data-name="Layer 1" xmlns="http://www.w3.org/2000/svg" viewBox="0 0 625.01 696.22"><defs><style>.cls-1{fill:#d5b078;}.cls-2{fill:#003e47;}</style></defs><path class="cls-1" d="M732.2,378,685.46,331.2a31.76,31.76,0,0,0-44.91,0l-69.19,69.2,69.19,69.2a31.81,31.81,0,0,0,44.91,0l46.74-46.75A31.78,31.78,0,0,0,732.2,378Zm-13.74,31.16-46.74,46.74a12.33,12.33,0,0,1-17.42,0L598.84,400.4,654.3,345a12.31,12.31,0,0,1,17.42,0l46.74,46.74A12.34,12.34,0,0,1,718.46,409.11Z" transform="translate(-227.5 -191.89)"/><path class="cls-1" d="M520.93,400.4,615.34,306a31.78,31.78,0,0,0,0-44.9l-69.19-69.2-78.33,78.33a31.52,31.52,0,0,0-9.3,22.45V338l-6.78-6.79a31.8,31.8,0,0,0-44.91,0l-69.19,69.2,69.19,69.2a31.76,31.76,0,0,0,44.91,0l6.78-6.79v45.32a31.52,31.52,0,0,0,9.3,22.45l78.33,78.33,69.19-69.2a31.78,31.78,0,0,0,0-44.9ZM478,292.67a12.25,12.25,0,0,1,3.6-8.71l64.59-64.58,55.45,55.45a12.34,12.34,0,0,1,0,17.42l-94.41,94.41L478,357.42ZM438,455.86a12.34,12.34,0,0,1-17.43,0L365.12,400.4,420.57,345A12.33,12.33,0,0,1,438,345l55.45,55.45ZM601.6,526l-55.45,55.46-64.59-64.59a12.25,12.25,0,0,1-3.6-8.71V443.38l29.23-29.24,94.41,94.41A12.34,12.34,0,0,1,601.6,526Z" transform="translate(-227.5 -191.89)"/><path class="cls-2" d="M297.66,650.4h23.89V757.33h67V776.2H297.66Z" transform="translate(-227.5 -191.89)"/><path class="cls-2" d="M398.84,727.5c0-32.35,19.41-51.4,48-51.4,28.75,0,48.16,19,48.16,51.4,0,32-19.23,51-48.16,51C418.07,778.54,398.84,759.49,398.84,727.5Zm73.15-.18c0-22.47-9.89-34.32-25.16-34.32-15.1,0-25,11.85-25,34.32,0,22.64,9.88,34.32,25,34.32C462.1,761.64,472,750,472,727.32Zm-49.6-76.38h20.84v18.69H422.39Zm28.39,0h20.84v18.69H450.78Z" transform="translate(-227.5 -191.89)"/><path class="cls-2" d="M500.74,678.62H525l12.93,37.56,12.76,37.38,12.94-37.38,13.12-37.56h23.18L563.28,776.2H537.4Z" transform="translate(-227.5 -191.89)"/><path class="cls-2" d="M605.71,727.5c0-31.63,19.41-51.4,47.26-51.4,26.42,0,46.19,18.69,46.19,51.76v1.8H628.35c.72,21,10.06,32.35,24.62,32.35,11.86,0,20.13-7.56,23.36-22.29h21.75c-4.32,24.44-20.85,38.82-45.29,38.82C624.76,778.54,605.71,759.31,605.71,727.5ZM629.25,716h46.91c-3.06-15.28-11.51-23.36-23.37-23.36C640.75,692.64,632.12,700.9,629.25,716Z" transform="translate(-227.5 -191.89)"/><path class="cls-2" d="M716.41,650.4h23V776.2h-23Z" transform="translate(-227.5 -191.89)"/><path class="cls-2" d="M758.83,650.4h23V776.2h-23Z" transform="translate(-227.5 -191.89)"/><path class="cls-2" d="M227.5,835.54h9.83V887.3H227.5Z" transform="translate(-227.5 -191.89)"/><path class="cls-2" d="M283,879c-3.48,5.92-9,9.1-16.2,9.1-13.16,0-22.11-9.47-22.11-26.69s9.54-26.84,23.81-26.84c12.5,0,21.3,7.24,23.29,20.11h-9.9c-1.48-8-6.73-12.28-13.39-12.28-8.43,0-13.75,6.51-13.75,19s5.4,18.92,13.75,18.92c7.1,0,12.35-4.65,13.9-13.45H268.91v-7.62h23v28H283Z" transform="translate(-227.5 -191.89)"/><path class="cls-2" d="M300.06,835.54h11.31l11.17,19.15,11.09,19.07-.15-19.15-.08-19.07h8.65V887.3H330.67l-11.17-19-11-18.92.15,18.92.07,19h-8.65Z" transform="translate(-227.5 -191.89)"/><path class="cls-2" d="M350.36,835.54h9.83V887.3h-9.83Z" transform="translate(-227.5 -191.89)"/><path class="cls-2" d="M384.67,843.37H367v-7.83h45.25v7.83H394.5V887.3h-9.83Z" transform="translate(-227.5 -191.89)"/><path class="cls-2" d="M419,835.54h37.78v7.83H428.83v13.46H449.6v7.69H428.83V879.6h27.95v7.7H419Z" transform="translate(-227.5 -191.89)"/><path class="cls-2" d="M497.77,843.37H480.09v-7.83h45.25v7.83H507.6V887.3h-9.83Z" transform="translate(-227.5 -191.89)"/><path class="cls-2" d="M532.09,835.54h9.84v21.22h22.92V835.54h9.83V887.3h-9.83V864.52H541.93V887.3h-9.84Z" transform="translate(-227.5 -191.89)"/><path class="cls-2" d="M583,835.54h37.78v7.83h-28v13.46h20.78v7.69H592.81V879.6h28v7.7H583Z" transform="translate(-227.5 -191.89)"/><path class="cls-2" d="M684.37,879c-3.47,5.92-9,9.1-16.19,9.1-13.16,0-22.11-9.47-22.11-26.69s9.54-26.84,23.81-26.84c12.5,0,21.3,7.24,23.29,20.11h-9.9c-1.48-8-6.73-12.28-13.39-12.28-8.43,0-13.75,6.51-13.75,19s5.4,18.92,13.75,18.92c7.1,0,12.35-4.65,13.9-13.45H670.33v-7.62h23v28h-9Z" transform="translate(-227.5 -191.89)"/><path class="cls-2" d="M718.33,835.54h11.76l19.15,51.76h-10.8l-4.14-11.91H713.45l-4.14,11.91H699.18ZM716,868h15.82l-.67-1.93-7.24-21.36-7.25,21.36Z" transform="translate(-227.5 -191.89)"/><path class="cls-2" d="M754.88,835.54h14.27L775,854.91l5.69,19.3,5.7-19.3,5.76-19.37h14.27V887.3h-9.17l.08-25.51.22-16.71-4.88,16.71-7.54,25.51h-9.24l-7.55-25.51-4.87-16.71.22,16.71.07,25.51h-8.87Z" transform="translate(-227.5 -191.89)"/><path class="cls-2" d="M814.72,835.54H852.5v7.83h-28v13.46h20.78v7.69H824.55V879.6h28v7.7H814.72Z" transform="translate(-227.5 -191.89)"/></svg>